<svg viewBox="0 0 170.55 117.14" xmlns="http://www.w3.org/2000/svg"><path d="m159.55 41.81-25.2 55.62-13.35-22.95.19-.32c.94-1.73 2-3.39 3-5 2.57-4.09 5-7.95 5-12a12.81 12.81 0 1 0 -25.62 0c0 4.09 2.42 7.95 5 12 1 1.61 2 3.27 3 5.11l.13.21-13.32 23-10.77-23.8a33 33 0 0 0 -20.56-58.9 32.89 32.89 0 0 0 -17.89 5.27v10.65a24.77 24.77 0 1 1 34.9 35.14l-10.89-24h-69.88v8.46h25.18v63h8.77v-63h30.92l9.11 20.09a24.73 24.73 0 0 1 -28.11-5.45v48.38h8.64v-33.78a33.07 33.07 0 0 0 22.88-1.62l16.81 37.08 18.87-32.51 18.87 32.51 33.17-73.19zm-43.19 24.67c-.33-.54-.67-1.07-1-1.6-1.84-2.94-3.75-6-3.75-7.76a4.75 4.75 0 0 1 9.5 0c0 1.78-1.91 4.82-3.75 7.76z" fill="#18355c"/><path d="m115.25 40.09c11.94-17 9.19-34-1-36.78a10.52 10.52 0 0 0 -12.89 7.41 10.73 10.73 0 0 0 .91 7.76c1.73 3.3 9.16 11.84 12.98 21.61z" fill="#f9cdda"/><path d="m115.25 40.09c-1.78-20.68 9.19-34 19.33-31.3a10.51 10.51 0 0 1 7.42 12.89 10.66 10.66 0 0 1 -4.69 6.24c-3.17 1.99-13.85 5.65-22.06 12.17z" fill="#c7e2dd"/><path d="m115.19 40.09c7.11-19.5 0-35.26-10.51-35.26a10.51 10.51 0 0 0 -10.51 10.51 10.67 10.67 0 0 0 2.9 7.26c2.53 2.73 11.93 9.05 18.12 17.49z" fill="#ea5387"/><path d="m115.19 40.09c-7.11-19.5 0-35.26 10.51-35.26a10.52 10.52 0 0 1 10.51 10.51 10.72 10.72 0 0 1 -2.9 7.26c-2.53 2.73-11.89 9.05-18.12 17.49z" fill="#a9cacd" opacity=".7"/></svg>